<svg width="60" height="60" viewBox="0 0 60 60" fill="none" xmlns="http://www.w3.org/2000/svg">
<path d="M30 5.625C25.1791 5.625 20.4664 7.05457 16.458 9.73293C12.4495 12.4113 9.32533 16.2181 7.48045 20.6721C5.63556 25.126 5.15285 30.027 6.09337 34.7553C7.03388 39.4836 9.35538 43.8268 12.7643 47.2357C16.1732 50.6446 20.5164 52.9661 25.2447 53.9066C29.973 54.8472 34.874 54.3644 39.3279 52.5196C43.7819 50.6747 47.5887 47.5505 50.2671 43.542C52.9454 39.5336 54.375 34.8209 54.375 30C54.3676 23.5376 51.7971 17.3421 47.2275 12.7725C42.6579 8.20291 36.4624 5.63244 30 5.625ZM48.3656 20.625H40.0102C38.9578 16.7647 37.1844 13.1384 34.7836 9.9375C37.6845 10.6344 40.4004 11.9503 42.7451 13.795C45.0898 15.6397 47.008 17.9696 48.368 20.625H48.3656ZM50.625 30C50.6267 31.9021 50.364 33.7952 49.8445 35.625H40.8188C41.3939 31.8971 41.3939 28.1029 40.8188 24.375H49.8445C50.364 26.2048 50.6267 28.0979 50.625 30ZM30 10.0781C32.8074 13.0842 34.8916 16.6914 36.0938 20.625H23.9063C25.1069 16.6908 27.1912 13.0832 30 10.0781ZM23.9063 39.375H36.0938C34.8932 43.3092 32.8088 46.9168 30 49.9219C27.1926 46.9158 25.1084 43.3086 23.9063 39.375ZM22.9922 35.625C22.3483 31.9026 22.3483 28.0974 22.9922 24.375H37.0266C37.6705 28.0974 37.6705 31.9026 37.0266 35.625H22.9922ZM34.793 50.0625C37.1938 46.8616 38.9672 43.2353 40.0195 39.375H48.3774C47.0163 42.0314 45.0968 44.362 42.7504 46.2067C40.4039 48.0515 37.6862 49.3669 34.7836 50.0625H34.793Z" fill="#171D2F"/>
</svg>
