<svg width="60" height="60" viewBox="0 0 60 60" fill="none" xmlns="http://www.w3.org/2000/svg">
<path fill-rule="evenodd" clip-rule="evenodd" d="M32.5877 37.9249L24.5877 31.6499L17.5877 40.7499L14.6377 38.4499L23.9377 26.3499L31.9377 32.6499L38.7877 23.7999L41.7627 26.0999L32.5877 37.9249ZM37.3877 10.9999C37.3877 10.4999 37.4127 9.99994 37.4877 9.52494H5.53772V55.0499H51.0627V21.6999C50.2377 21.9249 49.3377 22.0249 48.4377 22.0249C42.3377 22.0249 37.3877 17.0749 37.3877 10.9999Z" fill="#BDE162"/>
<path fill-rule="evenodd" clip-rule="evenodd" d="M48.4377 4.94995C45.6127 4.94995 43.2377 6.89995 42.5877 9.52495C42.4627 9.99995 42.3877 10.5 42.3877 11C42.3877 14.325 45.1127 17.025 48.4377 17.025C49.3627 17.025 50.2627 16.8 51.0627 16.425C53.0627 15.45 54.4627 13.375 54.4627 11C54.4627 7.64995 51.7627 4.94995 48.4377 4.94995Z" fill="#BDE162"/>
</svg>
