<svg width="198" height="50" viewBox="0 0 198 50" fill="none" xmlns="http://www.w3.org/2000/svg">
<g opacity="0.8">
<path d="M36.8451 21.0941C40.6376 21.0941 41.4909 22.7167 41.4909 24.7405C41.4909 26.8857 40.4588 28.4226 36.8608 28.4226C33.2858 28.4226 32.2524 26.975 32.2524 24.7405C32.2524 22.5417 33.3788 21.0941 36.8451 21.0941Z" fill="#171D2F"/>
<path d="M76.4794 21.0941C80.2719 21.0941 81.1252 22.7167 81.1252 24.7405C81.1252 26.8857 80.0918 28.4226 76.4951 28.4226C72.9213 28.4226 71.8867 26.975 71.8867 24.7405C71.8867 22.5417 73.0131 21.0941 76.4794 21.0941Z" fill="#171D2F"/>
<path fill-rule="evenodd" clip-rule="evenodd" d="M3.2666 45.8333V3.62738H194.923V45.8333H3.2666ZM94.6094 43.4524H192.505V6.00833H94.6094V43.4524ZM36.8632 32.0155C43.5963 32.0155 46.4268 29.1548 46.4268 24.6869C46.4268 20.1464 43.2386 17.4476 36.8632 17.4476C30.5858 17.4476 27.2816 20.3786 27.2816 24.6869C27.2816 29.5488 30.7478 32.0155 36.8632 32.0155ZM13.4541 17.769V31.8012H27.0435V28.0643H18.3706V17.769H13.4541ZM61.6357 31.8012L61.5088 30.4417C59.864 31.5979 57.8621 32.1543 55.8465 32.0155C52.8166 32.0155 50.2931 31.1214 48.8778 29.3167C47.9443 27.999 47.473 26.4174 47.5351 24.8119C47.482 23.2401 47.9697 21.6968 48.9189 20.4321C50.3511 18.681 52.9471 17.519 56.8122 17.519C61.2586 17.519 63.8716 18.8595 64.9956 21.1119C65.2368 21.6424 65.3786 22.2114 65.4137 22.7917H60.7099C60.5914 22.439 60.3708 22.1283 60.0754 21.8976C59.1384 21.2857 58.0195 21.0027 56.8992 21.094C56.2421 21.0156 55.5755 21.0754 54.9436 21.2695C54.3118 21.4637 53.7289 21.7877 53.2336 22.2202C52.6711 22.9786 52.407 23.9121 52.4903 24.8476C52.425 25.7401 52.6678 26.6282 53.1792 27.3679C53.6789 27.8265 54.2731 28.1739 54.9211 28.3868C55.5693 28.5995 56.2561 28.6727 56.9355 28.6012C58.2846 28.7093 59.6241 28.2994 60.6737 27.4571C60.8991 27.1795 61.0545 26.8531 61.1269 26.5048H56.0653V23.4893H65.537V31.8012H61.6357ZM76.4977 32.0155C83.2296 32.0155 86.0613 29.1548 86.0613 24.6869C86.0613 20.1464 82.8681 17.4476 76.4977 17.4476C70.2203 17.4476 66.916 20.3786 66.916 24.6869C66.916 29.5488 70.3823 32.0155 76.4977 32.0155Z" fill="#171D2F"/>
<path d="M102.891 31.7476V17.7155H106.396V31.7476H102.891Z" fill="#171D2F"/>
<path d="M124.394 25.8845C123.506 27.0286 121.977 27.5512 119.822 27.5643C119.367 27.5643 113.343 27.5464 113.343 27.5464V31.7476H109.913V17.7155H119.823C120.617 17.6327 121.421 17.7157 122.18 17.9589C122.94 18.2023 123.639 18.6004 124.232 19.1274C125.015 20.1324 125.396 21.3855 125.303 22.6488C125.383 23.7979 125.062 24.9394 124.394 25.8845ZM121.582 21.3095C121.219 20.7738 120.437 20.4762 119.114 20.4762H113.324V24.7476H119.076C120.491 24.7476 121.237 24.4619 121.582 23.9072C121.786 23.5163 121.874 23.0762 121.835 22.6381C121.866 22.1812 121.779 21.7242 121.582 21.3095Z" fill="#171D2F"/>
<path d="M135.41 31.9619C128.949 31.9619 126.972 29.581 126.972 27.225H130.637C130.637 28.3869 132.252 29.2631 135.573 29.2631C138.875 29.2631 139.746 28.6905 139.746 27.7607C139.746 26.7238 139.094 26.4024 136.026 26.0631C135.422 26.0095 133.777 25.8131 133.16 25.7238C128.809 25.2405 127.134 23.9714 127.134 21.7012C127.134 19.306 129.585 17.5012 134.901 17.5012C140.672 17.5012 142.886 19.7357 142.886 22.0595H139.261C139.261 20.8798 137.9 20.2 134.687 20.2C131.384 20.2 130.677 20.6464 130.677 21.5226C130.677 22.4345 131.402 22.7202 134.907 23.131C135.706 23.2393 137.484 23.4357 137.973 23.4881C141.677 23.8631 143.346 25.1857 143.346 27.5274C143.34 30.3167 140.799 31.9619 135.41 31.9619Z" fill="#171D2F"/>
<path d="M153.667 31.9441C148.932 31.9441 145.846 30.1024 145.846 26.2298V17.7155H149.311V26.2774C149.311 28.0476 150.782 29.2262 153.812 29.2262C156.552 29.2262 158.186 28.1191 158.186 26.2774V17.7155H161.616V26.5476C161.616 30.0679 158.748 31.9441 153.667 31.9441Z" fill="#171D2F"/>
<path d="M180.398 31.7476V22.381L175.951 31.7476H172.577L168.257 22.381V31.7476H164.994V17.7155H169.415L174.315 28.4048L179.323 17.7155H183.674V31.7476H180.398Z" fill="#171D2F"/>
</g>
</svg>
