<svg width="151" height="38" viewBox="0 0 151 38" fill="none" xmlns="http://www.w3.org/2000/svg">
<g opacity="0.8">
<path d="M45.2676 11.958H48.8966V26.3624H45.2676V11.958ZM50.3361 20.9236C50.3361 17.3611 52.5619 15.2355 55.9974 15.2355C59.4329 15.2355 61.6587 17.3611 61.6587 20.9236C61.6587 24.4861 59.4813 26.6236 55.9974 26.6236C52.5135 26.6236 50.3361 24.5455 50.3361 20.9236ZM58.0176 20.9236C58.0176 18.9643 57.2313 17.8124 55.9974 17.8124C54.7635 17.8124 53.9894 18.9999 53.9894 20.9236C53.9894 22.8474 54.7515 24.0111 55.9974 24.0111C57.2434 24.0111 58.0176 22.9186 58.0176 20.9355V20.9236ZM63.0256 27.063H66.5095C66.6754 27.4246 66.9556 27.724 67.3087 27.9166C67.6619 28.1091 68.0689 28.1846 68.4692 28.1318C69.8482 28.1318 70.574 27.3955 70.574 26.3268V24.3318H70.5015C70.2123 24.9432 69.7431 25.4555 69.1545 25.8027C68.5658 26.1498 67.8847 26.3158 67.199 26.2793C64.5498 26.2793 62.7958 24.2961 62.7958 20.888C62.7958 17.4799 64.4652 15.3305 67.2474 15.3305C67.9546 15.3033 68.6533 15.4889 69.25 15.8624C69.8468 16.236 70.313 16.7796 70.5861 17.4205V15.4374H74.2152V26.2436C74.2152 28.8443 71.8805 30.4593 68.4329 30.4593C65.2273 30.4593 63.2313 29.0461 63.0256 27.0749V27.063ZM70.5861 20.9118C70.5861 19.178 69.7756 18.0855 68.4934 18.0855C67.2111 18.0855 66.4248 19.1661 66.4248 20.9118C66.4248 22.6574 67.199 23.643 68.4934 23.643C69.7877 23.643 70.5861 22.6811 70.5861 20.9236V20.9118ZM75.5821 20.9118C75.5821 17.3493 77.8079 15.2236 81.2434 15.2236C84.6789 15.2236 86.9168 17.3493 86.9168 20.9118C86.9168 24.4743 84.7394 26.6118 81.2434 26.6118C77.7474 26.6118 75.5821 24.5455 75.5821 20.9236V20.9118ZM83.2635 20.9118C83.2635 18.9524 82.4773 17.8005 81.2434 17.8005C80.0095 17.8005 79.2958 18.9999 79.2958 20.9355C79.2958 22.8711 80.0579 24.023 81.2918 24.023C82.5256 24.023 83.2635 22.9186 83.2635 20.9355V20.9118ZM88.2958 12.8486C88.2863 12.4889 88.3858 12.1346 88.5817 11.8305C88.7776 11.5264 89.0611 11.2862 89.3961 11.1404C89.7312 10.9946 90.1028 10.9498 90.4639 11.0116C90.825 11.0735 91.1592 11.2391 91.4243 11.4876C91.6894 11.7361 91.8733 12.0563 91.9528 12.4076C92.0323 12.7589 92.0037 13.1253 91.8706 13.4607C91.7377 13.7959 91.5063 14.0849 91.2058 14.291C90.9054 14.497 90.5493 14.6109 90.1829 14.618C89.94 14.6344 89.6963 14.6013 89.467 14.5208C89.2377 14.4402 89.0279 14.3141 88.8507 14.1501C88.6735 13.9863 88.5327 13.7881 88.4372 13.5681C88.3417 13.3483 88.2935 13.1114 88.2958 12.8724V12.8486ZM88.2958 15.4611H91.9248V26.3624H88.2958V15.4611ZM105.098 20.9118C105.098 24.4743 103.489 26.5049 100.731 26.5049C100.024 26.5494 99.32 26.3797 98.7141 26.0187C98.1083 25.6576 97.6302 25.1226 97.3442 24.4861H97.2716V29.8536H93.6426V15.4374H97.2716V17.3849H97.3442C97.6169 16.7378 98.086 16.189 98.6877 15.8129C99.2894 15.4368 99.9945 15.2518 100.707 15.283C103.489 15.3305 105.147 17.373 105.147 20.9355L105.098 20.9118ZM101.469 20.9118C101.469 19.178 100.659 18.0736 99.3885 18.0736C98.1184 18.0736 97.3079 19.1899 97.2958 20.9118C97.2837 22.6336 98.1184 23.738 99.3885 23.738C100.659 23.738 101.469 22.6574 101.469 20.9355V20.9118ZM111.328 15.2118C114.34 15.2118 116.167 16.613 116.251 18.8574H112.949C112.949 18.0855 112.296 17.5986 111.292 17.5986C110.288 17.5986 109.84 17.9786 109.84 18.5368C109.84 19.0949 110.239 19.273 111.05 19.4393L113.372 19.9024C115.586 20.3655 116.53 21.2443 116.53 22.8949C116.53 25.1511 114.437 26.5999 111.352 26.5999C108.268 26.5999 106.247 25.1511 106.09 22.9305H109.586C109.695 23.738 110.348 24.213 111.413 24.213C112.477 24.213 112.961 23.8686 112.961 23.2986C112.961 22.7286 112.622 22.6099 111.751 22.4318L109.659 21.9924C107.493 21.553 106.356 20.4249 106.356 18.7624C106.38 16.6249 108.328 15.2355 111.328 15.2355V15.2118ZM128.639 26.3386H125.143V24.308H125.07C124.878 24.9897 124.454 25.5865 123.869 25.9991C123.283 26.4117 122.572 26.6153 121.852 26.5761C121.301 26.6069 120.749 26.5211 120.235 26.3246C119.72 26.1281 119.254 25.8255 118.869 25.4371C118.484 25.0488 118.188 24.5836 118.001 24.0734C117.815 23.5631 117.742 23.0195 117.788 22.4793V15.4374H121.417V21.6599C121.417 22.9543 122.094 23.643 123.219 23.643C123.483 23.6435 123.744 23.5887 123.985 23.4822C124.224 23.3757 124.44 23.2199 124.614 23.0254C124.787 22.8308 124.918 22.6019 124.994 22.3542C125.07 22.1064 125.093 21.8454 125.058 21.5886V15.4374H128.687L128.639 26.3386ZM130.393 15.4374H133.901V17.5393H133.973C134.166 16.8665 134.58 16.2754 135.151 15.8586C135.722 15.4418 136.419 15.2226 137.13 15.2355C137.855 15.1786 138.574 15.3913 139.146 15.8314C139.717 16.2715 140.099 16.9066 140.215 17.6105H140.288C140.507 16.8991 140.962 16.2797 141.58 15.8497C142.197 15.4197 142.943 15.2036 143.699 15.2355C144.193 15.2192 144.684 15.3051 145.141 15.4875C145.599 15.6698 146.012 15.9447 146.354 16.294C146.697 16.6435 146.96 17.0597 147.128 17.5156C147.295 17.9715 147.364 18.4571 147.328 18.9405V26.3624H143.699V19.8905C143.699 18.703 143.155 18.1568 142.139 18.1568C141.912 18.1549 141.687 18.2007 141.48 18.2912C141.274 18.3817 141.089 18.5147 140.939 18.6813C140.789 18.8479 140.676 19.0441 140.61 19.2567C140.543 19.4695 140.525 19.6937 140.554 19.9143V26.3624H137.106V19.843C137.106 18.7505 136.562 18.1568 135.57 18.1568C135.341 18.1569 135.114 18.2046 134.906 18.2969C134.697 18.3893 134.509 18.5241 134.358 18.6923C134.205 18.8606 134.092 19.0587 134.023 19.2735C133.955 19.4882 133.933 19.7146 133.961 19.938V26.3624H130.332L130.393 15.4374Z" fill="#171D2F"/>
<path d="M35.1184 12.6113C34.5028 11.2295 33.6881 9.94172 32.699 8.78756C31.2371 7.03046 29.4127 5.59721 27.3458 4.58214C25.279 3.56709 23.0165 2.99323 20.7075 2.89834C18.3985 2.80345 16.0951 3.18967 13.949 4.03161C11.803 4.87353 9.86295 6.15208 8.25653 7.78308C6.65011 9.41408 5.41376 11.3606 4.62886 13.4944C3.84396 15.6283 3.52829 17.9011 3.70266 20.1633C3.87703 22.4256 4.53745 24.626 5.64049 26.6195C6.74352 28.6132 8.26414 30.3549 10.1023 31.7301C11.2817 32.6301 12.585 33.3617 13.9732 33.9032C15.9196 34.6862 18.0028 35.0895 20.1063 35.0907C24.4483 35.0813 28.6094 33.3822 31.6775 30.366C34.7454 27.3497 36.4701 23.2625 36.4732 19.0001C36.4764 16.8014 36.0151 14.626 35.1184 12.6113ZM20.0942 6.16317C21.9832 6.16298 23.8494 6.56827 25.5619 7.35067C25.1444 7.52781 24.7052 7.65153 24.2555 7.71881C22.7756 7.9291 21.4046 8.60358 20.3473 9.64157C19.2899 10.6796 18.6028 12.0254 18.3885 13.4782C18.2946 14.2929 17.917 15.0509 17.3198 15.6242C16.7226 16.1976 15.9422 16.551 15.1103 16.6251C13.6304 16.8354 12.2594 17.5099 11.2021 18.5479C10.1447 19.5858 9.45762 20.9316 9.2434 22.3844C9.17087 23.1592 8.83416 23.8872 8.28776 24.4507C7.34499 22.4952 6.92149 20.3373 7.05663 18.1779C7.19178 16.0186 7.88118 13.9279 9.0607 12.1003C10.2402 10.2729 11.8715 8.76797 13.8028 7.72574C15.734 6.68351 17.9025 6.13782 20.1063 6.13942L20.0942 6.16317ZM10.0902 27.3126C10.2353 27.1819 10.3805 27.0632 10.5257 26.9207C11.6018 25.8965 12.2926 24.5444 12.4853 23.0851C12.5635 22.2647 12.9365 21.4986 13.5377 20.9238C14.1163 20.3327 14.895 19.9694 15.7273 19.9026C17.2072 19.6922 18.5781 19.0177 19.6355 17.9798C20.6929 16.9418 21.38 15.596 21.5942 14.1432C21.6466 13.2852 22.0216 12.4769 22.6466 11.8751C23.2395 11.2954 24.0255 10.9454 24.8603 10.8894C26.2199 10.7058 27.4879 10.1125 28.4894 9.1913C29.6297 10.12 30.5958 11.2372 31.3442 12.4926C31.2982 12.5535 31.2455 12.6093 31.1869 12.6588C30.6096 13.2552 29.8319 13.6264 28.9974 13.7038C27.5159 13.9104 26.1429 14.5837 25.0848 15.6223C24.0269 16.661 23.341 18.0088 23.1305 19.4632C23.0452 20.2807 22.6747 21.0441 22.0817 21.6241C21.4886 22.2042 20.7096 22.5651 19.8765 22.6457C18.3922 22.8543 17.0162 23.5275 15.9526 24.565C14.8892 25.6027 14.195 26.9493 13.9732 28.4051C13.9081 28.9854 13.705 29.5427 13.3805 30.0319C12.1394 29.3085 11.0278 28.3899 10.0902 27.3126ZM20.0942 31.8963C18.8667 31.8976 17.6451 31.7297 16.4652 31.3976C16.8688 30.6589 17.1312 29.8539 17.2394 29.0226C17.3242 28.2069 17.693 27.4448 18.2836 26.8651C18.8741 26.2854 19.6504 25.9233 20.4813 25.8401C21.9634 25.6321 23.3371 24.9587 24.3969 23.9205C25.4566 22.8823 26.1455 21.5351 26.3603 20.0807C26.4451 19.265 26.814 18.503 27.4045 17.9232C27.9951 17.3435 28.7713 16.9814 29.6023 16.8982C30.7176 16.7558 31.7806 16.3481 32.699 15.7107C33.209 17.6082 33.2694 19.5951 32.8756 21.5191C32.4819 23.4431 31.6443 25.2531 30.4274 26.81C29.2104 28.3668 27.6465 29.6295 25.8552 30.5009C24.064 31.3723 22.0933 31.8293 20.0942 31.8369V31.8963Z" fill="#171D2F"/>
</g>
</svg>
