<svg width="184" height="24" viewBox="0 0 184 24" fill="none" xmlns="http://www.w3.org/2000/svg">
<g opacity="0.8">
<path d="M91.8126 19.813H85.6147V3.24332H91.8126V19.813ZM86.2199 19.2077H91.2073V3.84858H86.2199V19.2077ZM100.436 19.813H94.3632V3.24332H107.052C108.87 3.09612 110.68 3.60644 112.153 4.68142C112.787 5.26164 113.279 5.98055 113.589 6.78204C113.9 7.58354 114.021 8.44595 113.943 9.302C114.034 10.7812 113.563 12.2402 112.625 13.3875C111.515 14.661 109.668 15.3171 107.135 15.3401C106.497 15.3571 101.717 15.3401 100.44 15.3401L100.436 19.813ZM94.9648 19.2077H99.8311V14.7288H100.135C100.197 14.7288 106.403 14.7482 107.121 14.7288C109.48 14.7082 111.176 14.1235 112.168 12.982C113.003 11.9439 113.417 10.6301 113.33 9.30079C113.404 8.53376 113.301 7.7599 113.028 7.03921C112.755 6.31853 112.32 5.67038 111.756 5.14505C110.39 4.16465 108.719 3.70444 107.043 3.84737H94.9684L94.9648 19.2077ZM105.766 11.6177H99.7899V7.10732H105.806C106.233 7.04839 106.667 7.09816 107.069 7.25201C107.471 7.40587 107.828 7.65881 108.106 7.98737C108.359 8.40735 108.478 8.89403 108.448 9.38311C108.47 9.83717 108.372 10.2891 108.163 10.6929C107.876 11.039 107.505 11.3054 107.085 11.4665C106.665 11.6276 106.211 11.678 105.766 11.6129V11.6177ZM100.395 11.0125H105.766C106.759 11.0125 107.374 10.8055 107.646 10.3794C107.796 10.0697 107.864 9.7266 107.844 9.38311C107.87 9.02244 107.792 8.6618 107.618 8.34447L107.611 8.33358C107.323 7.90989 106.75 7.71258 105.806 7.71258H100.395V11.0125ZM124.989 20.0575C119.554 20.0575 116.31 18.7078 115.074 15.9321C114.872 15.3959 114.735 14.8375 114.665 14.2688L114.612 13.9202H121.078L121.121 14.1744C121.17 14.4325 121.28 14.6754 121.44 14.8837C121.696 15.1924 122.548 15.7105 125.376 15.7105C128.775 15.7105 128.775 15.1137 128.775 14.7929C128.775 14.2518 128.381 14.0666 125.609 13.7713L125.083 13.7216C124.039 13.6236 122.72 13.4989 122.117 13.4468C117.033 12.9868 114.763 11.4071 114.763 8.32632C114.763 5.09058 118.626 3 124.605 3C129.482 3 132.624 4.28558 133.943 6.82405C134.255 7.41452 134.465 8.05394 134.564 8.71489L134.606 9.05505H128.132L128.105 8.78147C128.08 8.56767 127.989 8.3671 127.844 8.20768C127.602 7.88326 126.837 7.347 124.462 7.347C121.546 7.347 121.144 7.71984 121.144 8.12174C121.144 8.658 122.065 8.84805 125.017 9.164C126.248 9.26447 128.228 9.46784 128.906 9.55016C133.168 10.0126 135.07 11.5536 135.07 14.5484C135.071 17.0603 133.322 20.0575 124.989 20.0575ZM115.319 14.5254C115.379 14.9247 115.484 15.3159 115.63 15.6924C116.755 18.2212 119.818 19.4523 124.989 19.4523C129.313 19.4523 134.469 18.6049 134.469 14.5484C134.469 11.8937 132.786 10.5791 128.841 10.1518C128.163 10.0695 126.196 9.86732 124.968 9.76563C121.82 9.42426 120.541 9.24268 120.541 8.12174C120.541 6.96205 121.92 6.74174 124.464 6.74174C126.475 6.74174 127.774 7.1049 128.324 7.83726C128.475 8.01769 128.588 8.22578 128.659 8.44979H133.905C133.8 7.98162 133.633 7.52941 133.409 7.1049C132.198 4.78189 129.241 3.60526 124.607 3.60526C118.996 3.60526 115.371 5.45858 115.371 8.32632C115.371 11.0621 117.406 12.4131 122.173 12.844C122.778 12.8961 124.096 13.0207 125.142 13.12L125.672 13.1696C128.247 13.4408 129.382 13.6103 129.382 14.7929C129.382 16.0664 127.914 16.3158 125.378 16.3158C123.032 16.3158 121.55 15.9635 120.978 15.2699C120.801 15.0487 120.668 14.7961 120.586 14.5254H115.319ZM146.57 20.0369C140.251 20.0369 136.764 17.4815 136.764 12.8404V3.24332H142.88V12.8404C142.88 14.4322 144.305 15.3449 146.787 15.3449C149.16 15.3449 150.633 14.3923 150.633 12.8609V3.24332H156.686V13.3488C156.692 17.5989 153.001 20.0369 146.566 20.0369H146.57ZM137.37 3.84858V12.8404C137.37 18.5758 143.129 19.4317 146.57 19.4317C150.126 19.4317 156.09 18.6412 156.09 13.3488V3.84858H151.248V12.8609C151.248 14.7373 149.5 15.9502 146.797 15.9502C143.972 15.9502 142.284 14.7881 142.284 12.8404V3.84858H137.37ZM182.335 19.813H176.563V12.3319L173.289 19.813H168.255L165.016 12.3465V19.813H159.223V3.24332H166.842L170.801 12.3792L174.95 3.24332H182.342L182.335 19.813ZM177.168 19.2077H181.729V3.84858H175.335L170.781 13.8705L166.44 3.84858H159.824V19.2077H164.405V9.43395L168.642 19.2114H172.879L177.161 9.44847L177.168 19.2077ZM7.51274 3.54595H2V19.5104H17.2333V15.2602H7.51274V3.54595ZM28.3604 3.18279C21.3236 3.18279 17.6231 6.51779 17.6231 11.4144C17.6231 16.9465 21.5076 19.7525 28.3604 19.7525C35.9044 19.7525 39.0772 16.4986 39.0772 11.4144C39.0772 6.25147 35.4977 3.18037 28.3604 3.18037V3.18279ZM28.3398 7.33126C28.8188 7.32901 29.2976 7.3569 29.7731 7.41479L23.6103 13.5776C23.3187 12.918 23.1765 12.2019 23.1939 11.4809C23.1939 8.97637 24.4553 7.32884 28.3398 7.32884V7.33126ZM28.3604 15.6694C27.8988 15.6714 27.4376 15.6455 26.9792 15.5919L33.1529 9.41821C33.4336 10.0669 33.568 10.7696 33.5463 11.4761C33.5463 13.9129 32.3842 15.6669 28.3604 15.6669V15.6694ZM49.9998 13.4904H55.6735C55.59 13.8842 55.4159 14.2531 55.1651 14.5678C53.9888 15.526 52.4877 15.9923 50.9755 15.8691C50.2143 15.9506 49.4446 15.8674 48.7184 15.6253C47.9923 15.3833 47.3265 14.988 46.7665 14.4661C46.1928 13.6247 45.9203 12.6141 45.9929 11.5984C45.9001 10.534 46.1964 9.4721 46.827 8.60958C47.6199 7.71379 48.9624 7.32763 50.9355 7.32763C52.191 7.22368 53.4448 7.54611 54.4945 8.24279C54.8253 8.50557 55.0726 8.85884 55.2063 9.25963H60.4684C60.4302 8.59925 60.2713 7.95145 59.9999 7.34821C58.7398 4.78553 55.8103 3.26026 50.829 3.26026C46.4965 3.26026 43.5888 4.58216 41.9825 6.5759C40.9216 8.01565 40.377 9.77101 40.4366 11.5584C40.368 13.3863 40.8986 15.1865 41.9474 16.685C43.5344 18.7429 46.3609 19.7549 49.7577 19.7549C52.0159 19.9124 54.2588 19.2799 56.1021 17.9657L56.2449 19.5104H60.6161V10.0537H49.9998V13.4904ZM73.0228 3.17916C65.9872 3.17916 62.2854 6.51416 62.2854 11.4107C62.2854 16.9428 66.1688 19.7488 73.0228 19.7488C80.568 19.7488 83.7408 16.4949 83.7408 11.4107C83.7408 6.25147 80.1613 3.18037 73.0228 3.18037V3.17916ZM73.0034 7.32763C73.4698 7.32625 73.9359 7.35293 74.3992 7.40753L68.2606 13.5497C67.978 12.8974 67.8405 12.1916 67.8575 11.4809C67.8526 8.97637 69.1188 7.32763 73.0034 7.32763ZM73.0228 15.6657C72.549 15.6678 72.0756 15.6402 71.6053 15.5834L77.7995 9.38795C78.0909 10.0453 78.2304 10.7599 78.2075 11.4785C78.2099 13.9129 77.0526 15.6669 73.0228 15.6669V15.6657Z" fill="#171D2F"/>
</g>
</svg>
