<svg width="169" height="36" viewBox="0 0 169 36" fill="none" xmlns="http://www.w3.org/2000/svg">
<g opacity="0.8">
<path d="M27.063 16.0453C26.6055 16.5029 26.2552 17.0551 26.0369 17.6625C25.8186 18.2701 25.7379 18.918 25.8003 19.5601L25.7786 19.5385C25.8428 20.2944 25.7402 21.0549 25.4781 21.7674C25.216 22.4797 24.8008 23.1266 24.2613 23.663C23.7217 24.1993 23.0709 24.6122 22.3543 24.8726C21.6377 25.1331 20.8725 25.2351 20.1122 25.1713L20.134 25.1929C19.2245 25.1088 18.3111 25.3055 17.5181 25.7563C16.7252 26.2071 16.0915 26.8901 15.7034 27.7121C15.3153 28.5341 15.1916 29.4549 15.3492 30.3494C15.507 31.2438 15.9383 32.0681 16.5845 32.7098C17.2307 33.3516 18.0602 33.7796 18.96 33.9355C19.8599 34.0915 20.7862 33.9677 21.6127 33.5811C22.4393 33.1945 23.1256 32.564 23.5784 31.7754C24.0312 30.9867 24.2284 30.0786 24.1429 29.1745L24.1658 29.1961C24.1016 28.4403 24.2041 27.6797 24.4662 26.9672C24.7282 26.2549 25.1436 25.608 25.6831 25.0716C26.2227 24.5353 26.8735 24.1224 27.59 23.862C28.3067 23.6015 29.0718 23.4995 29.8322 23.5633L29.8092 23.5417C30.5521 23.6081 31.2999 23.487 31.9833 23.1896C32.6665 22.8923 33.2633 22.4282 33.7182 21.8406C34.173 21.2529 34.4714 20.5605 34.5854 19.8278C34.6995 19.095 34.6256 18.3455 34.3707 17.6485C34.1157 16.9517 33.6879 16.3301 33.1269 15.8413C32.566 15.3525 31.89 15.0125 31.1616 14.8526C30.4332 14.6928 29.676 14.7182 28.9601 14.9267C28.2443 15.1352 27.593 15.5199 27.0666 16.0453H27.063Z" fill="#171D2F"/>
<path d="M18.1578 22.3631L18.1349 22.3415C18.7811 22.4062 19.4337 22.3274 20.0456 22.1107C20.6574 21.8939 21.2131 21.5449 21.6726 21.0885C22.1319 20.6321 22.4836 20.0799 22.702 19.4719C22.9205 18.8638 23.0003 18.2152 22.9357 17.5727L22.9587 17.5943C22.8944 16.8385 22.997 16.0779 23.259 15.3655C23.5211 14.6531 23.9364 14.0062 24.4759 13.4698C25.0155 12.9335 25.6663 12.5206 26.3828 12.2602C27.0995 11.9997 27.8646 11.8977 28.625 11.9615L28.602 11.9399C29.5116 12.0249 30.4253 11.8288 31.2186 11.3785C32.0121 10.9282 32.6463 10.2455 33.035 9.42367C33.4237 8.60183 33.5479 7.6808 33.3908 6.78619C33.2336 5.89157 32.8027 5.06696 32.1566 4.42479C31.5107 3.78263 30.6811 3.35419 29.7812 3.19792C28.8813 3.04165 27.9548 3.16514 27.128 3.55156C26.3012 3.93797 25.6146 4.56851 25.1616 5.35717C24.7085 6.14581 24.5113 7.05417 24.5967 7.95835L24.575 7.93555C24.6394 8.69141 24.537 9.45214 24.275 10.1646C24.0131 10.8771 23.5977 11.5241 23.0582 12.0605C22.5186 12.5968 21.8678 13.0097 21.1511 13.2701C20.4343 13.5305 19.6691 13.6323 18.9087 13.5683L18.9304 13.5911C18.2842 13.5265 17.6315 13.6053 17.0198 13.822C16.408 14.0386 15.8522 14.3878 15.3928 14.8442C14.9333 15.3005 14.5817 15.8528 14.3632 16.4608C14.1448 17.0689 14.065 17.7175 14.1296 18.3599L14.1079 18.3383C14.1719 19.0941 14.0691 19.8547 13.8071 20.567C13.5449 21.2792 13.1296 21.9261 12.5901 22.4624C12.0506 22.9987 11.3999 23.4115 10.6834 23.6721C9.9669 23.9326 9.20182 24.0347 8.44155 23.9711L8.46328 23.9927C7.55372 23.9078 6.63995 24.1039 5.8466 24.5542C5.05327 25.0046 4.41898 25.6871 4.03027 26.509C3.64154 27.3309 3.5173 28.2519 3.67451 29.1465C3.83171 30.0411 4.26271 30.8657 4.90869 31.5079C5.55468 32.1501 6.38421 32.5785 7.28414 32.7347C8.18408 32.891 9.1106 32.7675 9.93733 32.3811C10.7641 31.9947 11.4508 31.3642 11.9038 30.5756C12.3568 29.7868 12.554 28.8785 12.4686 27.9743L12.4915 27.9959C12.4273 27.2401 12.5299 26.4795 12.792 25.7671C13.0539 25.0547 13.4693 24.4078 14.0088 23.8714C14.5484 23.3351 15.1991 22.9222 15.9157 22.6618C16.6324 22.4013 17.3975 22.2993 18.1578 22.3631Z" fill="#171D2F"/>
<path d="M10.0676 19.9549C10.5251 19.4974 10.8754 18.9452 11.0934 18.3376C11.3115 17.7301 11.3919 17.0821 11.329 16.4401L11.352 16.4617C11.2877 15.7057 11.3903 14.9448 11.6525 14.2322C11.9147 13.5196 12.3302 12.8726 12.8701 12.3362C13.4099 11.7998 14.0609 11.387 14.7778 11.1267C15.4948 10.8663 16.2602 10.7647 17.0207 10.8289L16.9978 10.8073C17.907 10.892 18.8204 10.6958 19.6134 10.2455C20.4064 9.79521 21.0403 9.11273 21.4288 8.29115C21.8173 7.46956 21.9414 6.54886 21.7842 5.65458C21.627 4.76031 21.1961 3.936 20.5504 3.29407C19.9047 2.65215 19.0754 2.22384 18.1758 2.06758C17.2763 1.9113 16.35 2.03469 15.5236 2.42087C14.6971 2.80705 14.0106 3.43726 13.5577 4.22554C13.1046 5.01382 12.9072 5.92181 12.9925 6.82567L12.9707 6.80407C13.035 7.55989 12.9324 8.32054 12.6703 9.03291C12.4082 9.74527 11.993 10.3922 11.4534 10.9286C10.9139 11.4649 10.2631 11.8777 9.5465 12.1382C8.82989 12.3987 8.06473 12.5007 7.30442 12.4369L7.32614 12.4585C6.58323 12.3922 5.83552 12.5136 5.1523 12.811C4.46908 13.1085 3.87245 13.5727 3.4177 14.1604C2.96296 14.7481 2.66482 15.4405 2.55089 16.1732C2.43697 16.906 2.51096 17.6556 2.76599 18.3523C3.02103 19.0491 3.44887 19.6706 4.00987 20.1592C4.57086 20.648 5.24686 20.988 5.97523 21.1478C6.70358 21.3075 7.46074 21.282 8.17654 21.0735C8.89233 20.865 9.54358 20.4802 10.07 19.9549H10.0676Z" fill="#171D2F"/>
<path d="M47.4612 7.98608H51.0464V25.3297H47.4612V7.98608Z" fill="#171D2F"/>
<path d="M53.0768 19.3907C53.0719 18.1444 53.4391 16.9244 54.132 15.8857C54.8249 14.847 55.8123 14.036 56.9693 13.5557C58.1262 13.0752 59.4004 12.9469 60.6308 13.187C61.8611 13.4272 62.9921 14.0248 63.8804 14.9044C64.7687 15.7838 65.3745 16.9057 65.621 18.1278C65.8675 19.3499 65.7435 20.6172 65.2649 21.7692C64.7862 22.9211 63.9744 23.906 62.9323 24.5989C61.8901 25.2919 60.6646 25.6619 59.4107 25.6619C58.5785 25.6714 57.7527 25.5157 56.9816 25.2042C56.2105 24.8927 55.5096 24.4315 54.9199 23.8477C54.3301 23.2638 53.8634 22.5689 53.547 21.8036C53.2305 21.0384 53.0707 20.2181 53.0768 19.3907ZM62.1594 19.3907C62.1444 18.8534 61.9705 18.3325 61.6594 17.893C61.3482 17.4535 60.9136 17.1149 60.41 16.9196C59.9062 16.7243 59.3559 16.6808 58.8275 16.7948C58.2992 16.9088 57.8163 17.175 57.4393 17.5603C57.0625 17.9455 56.808 18.4327 56.7082 18.961C56.6082 19.4891 56.667 20.0348 56.8774 20.53C57.0878 21.0251 57.4403 21.4475 57.8908 21.7445C58.3414 22.0415 58.8701 22.1999 59.4107 22.1999C59.7809 22.2097 60.1492 22.1431 60.4924 22.0044C60.8355 21.8657 61.146 21.6578 61.4042 21.394C61.6624 21.13 61.8629 20.8157 61.9928 20.4709C62.1228 20.1262 62.1795 19.7584 62.1594 19.3907Z" fill="#171D2F"/>
<path d="M80.0336 13.4507V24.7307C80.0336 28.7219 76.9023 30.4091 73.7239 30.4091C72.6049 30.4924 71.4843 30.2676 70.4851 29.7597C69.4861 29.2516 68.647 28.4799 68.06 27.5291L71.1189 25.7711C71.3656 26.2667 71.7588 26.6756 72.2456 26.943C72.7326 27.2104 73.29 27.3237 73.8434 27.2675C74.1971 27.3162 74.5573 27.2853 74.8974 27.1769C75.2373 27.0686 75.5485 26.8856 75.8078 26.6416C76.0671 26.3975 76.2678 26.0987 76.3953 25.767C76.5226 25.4355 76.5733 25.0797 76.5438 24.7259V23.6399C76.1239 24.1505 75.5897 24.5562 74.9835 24.8244C74.3774 25.0926 73.7166 25.2159 73.0539 25.1843C71.4772 25.1349 69.9816 24.4775 68.8838 23.3512C67.7861 22.225 67.1722 20.7183 67.1722 19.1501C67.1722 17.582 67.7861 16.0752 68.8838 14.949C69.9816 13.8227 71.4772 13.1654 73.0539 13.1159C73.7166 13.0844 74.3774 13.2076 74.9835 13.4758C75.5897 13.744 76.1239 14.1497 76.5438 14.6603V13.4483L80.0336 13.4507ZM76.545 19.1519C76.5691 18.5776 76.4197 18.0092 76.1161 17.5199C75.8125 17.0306 75.3685 16.6428 74.8413 16.4066C74.3142 16.1702 73.728 16.0961 73.1581 16.1938C72.5882 16.2915 72.0608 16.5564 71.6436 16.9547C71.2266 17.3529 70.9389 17.866 70.8176 18.4281C70.6964 18.9902 70.7471 19.5755 70.9634 20.1087C71.1796 20.6418 71.5514 21.0986 72.0309 21.4199C72.5104 21.7413 73.0757 21.9126 73.6539 21.9119C74.0306 21.9381 74.4086 21.8855 74.7636 21.7576C75.1186 21.6297 75.4427 21.4292 75.7151 21.1692C75.9874 20.9092 76.202 20.5954 76.345 20.2479C76.4879 19.9005 76.5561 19.5272 76.545 19.1519Z" fill="#171D2F"/>
<path d="M82.064 19.3907C82.0591 18.1444 82.4262 16.9244 83.1192 15.8857C83.8121 14.847 84.7995 14.036 85.9564 13.5557C87.1134 13.0752 88.3876 12.9469 89.618 13.187C90.8483 13.4272 91.9792 14.0248 92.8676 14.9044C93.7559 15.7838 94.3617 16.9057 94.6082 18.1278C94.8547 19.3499 94.7307 20.6172 94.252 21.7692C93.7734 22.9211 92.9616 23.906 91.9195 24.5989C90.8772 25.2919 89.6517 25.6619 88.3979 25.6619C87.5657 25.6714 86.7398 25.5157 85.9688 25.2042C85.1976 24.8927 84.4968 24.4315 83.9071 23.8477C83.3173 23.2638 82.8506 22.5689 82.5342 21.8036C82.2177 21.0384 82.0579 20.2181 82.064 19.3907ZM91.1466 19.3907C91.1316 18.8534 90.9576 18.3325 90.6466 17.893C90.3354 17.4535 89.9008 17.1149 89.3972 16.9196C88.8934 16.7243 88.343 16.6808 87.8147 16.7948C87.2864 16.9088 86.8035 17.175 86.4265 17.5603C86.0496 17.9455 85.7952 18.4327 85.6952 18.961C85.5953 19.4891 85.6542 20.0348 85.8646 20.53C86.075 21.0251 86.4275 21.4475 86.878 21.7445C87.3286 22.0415 87.8572 22.1999 88.3979 22.1999C88.7681 22.2097 89.1364 22.1431 89.4795 22.0044C89.8227 21.8657 90.1332 21.6578 90.3914 21.394C90.6496 21.13 90.8501 20.8157 90.98 20.4709C91.11 20.1262 91.1667 19.7584 91.1466 19.3907Z" fill="#171D2F"/>
<path d="M96.4037 10.2673C96.4037 9.84437 96.5298 9.43093 96.7662 9.07928C97.0026 8.72762 97.3386 8.45353 97.7317 8.29169C98.1247 8.12983 98.5572 8.08748 98.9745 8.17C99.3917 8.25251 99.7751 8.45617 100.076 8.75524C100.377 9.05429 100.582 9.43531 100.665 9.85013C100.748 10.2649 100.705 10.6949 100.542 11.0856C100.379 11.4764 100.104 11.8104 99.7499 12.0453C99.3962 12.2803 98.9803 12.4057 98.5548 12.4057C97.9861 12.4001 97.4422 12.173 97.04 11.7732C96.6379 11.3733 96.4094 10.8327 96.4037 10.2673ZM96.7658 13.4509H100.352V25.3309H96.761L96.7658 13.4509Z" fill="#171D2F"/>
<path d="M115.833 19.3908C115.874 20.176 115.759 20.9615 115.494 21.7023C115.229 22.443 114.819 23.1244 114.288 23.7072C113.758 24.29 113.116 24.7628 112.401 25.0983C111.685 25.4337 110.91 25.6253 110.12 25.662C109.456 25.698 108.792 25.5867 108.176 25.336C107.56 25.0852 107.009 24.7014 106.561 24.2124V30.0816H102.975V13.4508H106.561V14.5668C107.009 14.0782 107.561 13.6947 108.176 13.4442C108.792 13.1937 109.456 13.0824 110.12 13.1184C110.911 13.155 111.686 13.3466 112.401 13.6821C113.117 14.0176 113.758 14.4904 114.289 15.0734C114.82 15.6563 115.23 16.3379 115.495 17.0789C115.759 17.8198 115.874 18.6056 115.833 19.3908ZM112.247 19.3908C112.233 18.8349 112.055 18.2954 111.734 17.8397C111.413 17.3842 110.964 17.0328 110.443 16.8298C109.922 16.6266 109.353 16.5807 108.806 16.6978C108.259 16.8148 107.759 17.0896 107.368 17.4878C106.978 17.886 106.714 18.3898 106.61 18.9364C106.506 19.4829 106.566 20.0476 106.784 20.5601C107.001 21.0726 107.366 21.5099 107.832 21.8175C108.298 22.1249 108.845 22.289 109.405 22.2888C109.789 22.3059 110.172 22.2419 110.53 22.1013C110.887 21.9608 111.211 21.7466 111.479 21.473C111.748 21.1992 111.955 20.8724 112.087 20.5136C112.22 20.1548 112.274 19.7721 112.247 19.3908Z" fill="#171D2F"/>
<path d="M126.896 21.7655C126.896 24.4979 124.507 25.6619 121.926 25.6619C120.883 25.7558 119.836 25.5366 118.92 25.0325C118.004 24.5285 117.261 23.7629 116.787 22.8347L119.893 21.0767C120.019 21.5057 120.289 21.879 120.658 22.134C121.027 22.3892 121.474 22.5107 121.921 22.4783C122.781 22.4783 123.212 22.2167 123.212 21.7427C123.212 20.4347 117.332 21.1247 117.332 17.0147C117.332 14.4239 119.531 13.1183 122.017 13.1183C122.951 13.0889 123.876 13.3092 124.695 13.7562C125.515 14.2034 126.2 14.8607 126.676 15.6599L123.617 17.2991C123.483 16.988 123.26 16.7229 122.975 16.537C122.69 16.3511 122.357 16.2527 122.017 16.2539C121.395 16.2539 121.012 16.4939 121.012 16.9187C121.017 18.2735 126.896 17.3699 126.896 21.7655Z" fill="#171D2F"/>
<path d="M139.992 13.4507V25.3307H136.407V24.2135C135.993 24.7064 135.468 25.0949 134.874 25.3469C134.28 25.5989 133.636 25.7072 132.991 25.6631C130.577 25.6631 128.525 23.9531 128.525 20.7431V13.4507H132.11V20.2211C132.08 20.504 132.112 20.7901 132.205 21.0593C132.297 21.3286 132.448 21.5746 132.646 21.7801C132.844 21.9857 133.084 22.1459 133.351 22.2497C133.616 22.3535 133.902 22.3984 134.188 22.3811C135.503 22.3811 136.411 21.6215 136.411 19.9343V13.4543L139.992 13.4507Z" fill="#171D2F"/>
<path d="M160.55 18.0361V25.3297H156.965V18.3445C156.965 17.1565 156.391 16.3969 155.245 16.3969C154.05 16.3969 153.38 17.2285 153.38 18.6301V25.3297H149.796V18.3445C149.796 17.1565 149.222 16.3969 148.074 16.3969C146.879 16.3969 146.21 17.2285 146.21 18.6301V25.3297H142.625V13.4497H146.21V14.5417C146.582 14.0572 147.07 13.673 147.629 13.4242C148.189 13.1754 148.802 13.0699 149.413 13.1173C150.026 13.0874 150.637 13.2162 151.186 13.4908C151.734 13.7654 152.201 14.1768 152.543 14.6845C152.94 14.1532 153.466 13.7308 154.072 13.4568C154.678 13.1827 155.345 13.0659 156.009 13.1173C158.753 13.1185 160.55 15.0661 160.55 18.0361Z" fill="#171D2F"/>
<path d="M163.582 13.3775C165.051 13.3775 166.243 12.1933 166.243 10.7327C166.243 9.272 165.051 8.08789 163.582 8.08789C162.113 8.08789 160.922 9.272 160.922 10.7327C160.922 12.1933 162.113 13.3775 163.582 13.3775Z" fill="#171D2F"/>
</g>
</svg>
